<mxfile host="app.diagrams.net" agent="Mozilla/5.0 (Windows NT 10.0; Win64; x64) AppleWebKit/537.36 (KHTML, like Gecko) Chrome/133.0.0.0 Safari/537.36" version="26.0.16">
  <diagram id="ZMm6k7tDR_b-0QmgdHy9" name="1 oldal">
    <mxGraphModel dx="1434" dy="780" grid="1" gridSize="10" guides="1" tooltips="1" connect="1" arrows="1" fold="1" page="1" pageScale="1" pageWidth="827" pageHeight="1169" math="0" shadow="0">
      <root>
        <mxCell id="0" />
        <mxCell id="1" parent="0" />
        <mxCell id="8Rp9WjOK1RejDhOyJP5W-1" value="HasTurn" style="rounded=1;whiteSpace=wrap;html=1;arcSize=40;fontColor=#000000;fillColor=#ffffc0;strokeColor=#ff0000;" parent="1" vertex="1">
          <mxGeometry x="180" y="245" width="120" height="40" as="geometry" />
        </mxCell>
        <mxCell id="8Rp9WjOK1RejDhOyJP5W-2" value="" style="edgeStyle=orthogonalEdgeStyle;html=1;verticalAlign=bottom;endArrow=open;endSize=8;strokeColor=#ff0000;rounded=0;exitX=1;exitY=0.5;exitDx=0;exitDy=0;entryX=0;entryY=0.5;entryDx=0;entryDy=0;" parent="1" source="8Rp9WjOK1RejDhOyJP5W-1" target="53QM2ckFYwHJTsc9DrF1-8" edge="1">
          <mxGeometry relative="1" as="geometry">
            <mxPoint x="440" y="580" as="targetPoint" />
            <mxPoint x="560" y="470" as="sourcePoint" />
          </mxGeometry>
        </mxCell>
        <mxCell id="53QM2ckFYwHJTsc9DrF1-1" value="" style="ellipse;html=1;shape=startState;fillColor=#000000;strokeColor=#ff0000;" parent="1" vertex="1">
          <mxGeometry x="40" y="250" width="30" height="30" as="geometry" />
        </mxCell>
        <mxCell id="53QM2ckFYwHJTsc9DrF1-2" value="" style="edgeStyle=orthogonalEdgeStyle;html=1;verticalAlign=bottom;endArrow=open;endSize=8;strokeColor=#ff0000;rounded=0;entryX=0;entryY=0.5;entryDx=0;entryDy=0;" parent="1" source="53QM2ckFYwHJTsc9DrF1-1" target="8Rp9WjOK1RejDhOyJP5W-1" edge="1">
          <mxGeometry relative="1" as="geometry">
            <mxPoint x="290" y="265" as="targetPoint" />
          </mxGeometry>
        </mxCell>
        <mxCell id="53QM2ckFYwHJTsc9DrF1-3" value="onTurnBegin()" style="text;html=1;align=center;verticalAlign=middle;resizable=0;points=[];autosize=1;strokeColor=none;fillColor=none;" parent="1" vertex="1">
          <mxGeometry x="90" y="230" width="100" height="30" as="geometry" />
        </mxCell>
        <mxCell id="53QM2ckFYwHJTsc9DrF1-4" value="ReadToEject" style="rounded=1;whiteSpace=wrap;html=1;arcSize=40;fontColor=#000000;fillColor=#ffffc0;strokeColor=#ff0000;" parent="1" vertex="1">
          <mxGeometry x="750" y="460" width="120" height="40" as="geometry" />
        </mxCell>
        <mxCell id="53QM2ckFYwHJTsc9DrF1-8" value="" style="rhombus;whiteSpace=wrap;html=1;" parent="1" vertex="1">
          <mxGeometry x="354" y="245" width="40" height="40" as="geometry" />
        </mxCell>
        <mxCell id="53QM2ckFYwHJTsc9DrF1-9" value="isActive()" style="text;html=1;align=center;verticalAlign=middle;resizable=0;points=[];autosize=1;strokeColor=none;fillColor=none;" parent="1" vertex="1">
          <mxGeometry x="380" y="215" width="70" height="30" as="geometry" />
        </mxCell>
        <mxCell id="53QM2ckFYwHJTsc9DrF1-10" value="Active" style="rounded=1;whiteSpace=wrap;html=1;arcSize=40;fontColor=#000000;fillColor=#ffffc0;strokeColor=#ff0000;" parent="1" vertex="1">
          <mxGeometry x="750" y="245" width="120" height="40" as="geometry" />
        </mxCell>
        <mxCell id="53QM2ckFYwHJTsc9DrF1-11" value="" style="edgeStyle=orthogonalEdgeStyle;html=1;verticalAlign=bottom;endArrow=open;endSize=8;strokeColor=#ff0000;rounded=0;entryX=0.5;entryY=0;entryDx=0;entryDy=0;" parent="1" source="53QM2ckFYwHJTsc9DrF1-10" target="53QM2ckFYwHJTsc9DrF1-4" edge="1">
          <mxGeometry relative="1" as="geometry">
            <mxPoint x="670" y="345" as="targetPoint" />
          </mxGeometry>
        </mxCell>
        <mxCell id="53QM2ckFYwHJTsc9DrF1-12" value="" style="edgeStyle=orthogonalEdgeStyle;html=1;verticalAlign=bottom;endArrow=open;endSize=8;strokeColor=#ff0000;rounded=0;entryX=0;entryY=0.5;entryDx=0;entryDy=0;exitX=1;exitY=0.5;exitDx=0;exitDy=0;" parent="1" source="53QM2ckFYwHJTsc9DrF1-8" target="53QM2ckFYwHJTsc9DrF1-10" edge="1">
          <mxGeometry relative="1" as="geometry">
            <mxPoint x="560" y="355" as="targetPoint" />
            <mxPoint x="560" y="295" as="sourcePoint" />
          </mxGeometry>
        </mxCell>
        <mxCell id="53QM2ckFYwHJTsc9DrF1-13" value="[true]" style="text;html=1;align=center;verticalAlign=middle;resizable=0;points=[];autosize=1;strokeColor=none;fillColor=none;" parent="1" vertex="1">
          <mxGeometry x="550" y="220" width="50" height="30" as="geometry" />
        </mxCell>
        <mxCell id="53QM2ckFYwHJTsc9DrF1-14" value="" style="edgeStyle=orthogonalEdgeStyle;html=1;verticalAlign=bottom;endArrow=open;endSize=8;strokeColor=#ff0000;rounded=0;exitX=0.5;exitY=1;exitDx=0;exitDy=0;entryX=0.5;entryY=0;entryDx=0;entryDy=0;" parent="1" source="53QM2ckFYwHJTsc9DrF1-8" target="53QM2ckFYwHJTsc9DrF1-22" edge="1">
          <mxGeometry relative="1" as="geometry">
            <mxPoint x="374" y="460" as="targetPoint" />
            <mxPoint x="690" y="305" as="sourcePoint" />
          </mxGeometry>
        </mxCell>
        <mxCell id="53QM2ckFYwHJTsc9DrF1-15" value="[false]" style="text;html=1;align=center;verticalAlign=middle;resizable=0;points=[];autosize=1;strokeColor=none;fillColor=none;" parent="1" vertex="1">
          <mxGeometry x="390" y="360" width="60" height="30" as="geometry" />
        </mxCell>
        <mxCell id="53QM2ckFYwHJTsc9DrF1-16" value="[has spores]" style="text;html=1;align=center;verticalAlign=middle;resizable=0;points=[];autosize=1;strokeColor=none;fillColor=none;" parent="1" vertex="1">
          <mxGeometry x="720" y="360" width="90" height="30" as="geometry" />
        </mxCell>
        <mxCell id="53QM2ckFYwHJTsc9DrF1-19" value="" style="edgeStyle=orthogonalEdgeStyle;html=1;verticalAlign=bottom;endArrow=open;endSize=8;strokeColor=#ff0000;rounded=0;exitX=0;exitY=0.5;exitDx=0;exitDy=0;entryX=1;entryY=0.5;entryDx=0;entryDy=0;" parent="1" source="53QM2ckFYwHJTsc9DrF1-4" target="53QM2ckFYwHJTsc9DrF1-22" edge="1">
          <mxGeometry relative="1" as="geometry">
            <mxPoint x="434" y="480" as="targetPoint" />
            <mxPoint x="490" y="400" as="sourcePoint" />
          </mxGeometry>
        </mxCell>
        <mxCell id="53QM2ckFYwHJTsc9DrF1-21" value="ejectSpores() [for the third time] /deactivate()" style="text;html=1;align=center;verticalAlign=middle;resizable=0;points=[];autosize=1;strokeColor=none;fillColor=none;" parent="1" vertex="1">
          <mxGeometry x="460" y="500" width="260" height="30" as="geometry" />
        </mxCell>
        <mxCell id="53QM2ckFYwHJTsc9DrF1-22" value="" style="ellipse;html=1;shape=endState;fillColor=#000000;strokeColor=#ff0000;" parent="1" vertex="1">
          <mxGeometry x="359" y="465" width="30" height="30" as="geometry" />
        </mxCell>
      </root>
    </mxGraphModel>
  </diagram>
</mxfile>
